<mxfile host="65bd71144e">
    <diagram id="mv9ond7fJWhEICGI8CXs" name="Page-1">
        <mxGraphModel dx="2004" dy="1233" grid="1" gridSize="10" guides="1" tooltips="1" connect="1" arrows="1" fold="1" page="1" pageScale="1" pageWidth="827" pageHeight="1169" math="0" shadow="0">
            <root>
                <mxCell id="0"/>
                <mxCell id="1" parent="0"/>
                <mxCell id="2" value="&lt;font style=&quot;font-size: 18px&quot;&gt;MCD&lt;/font&gt;" style="text;html=1;align=center;verticalAlign=middle;resizable=0;points=[];autosize=1;strokeColor=none;fillColor=none;" vertex="1" parent="1">
                    <mxGeometry x="40" y="20" width="60" height="20" as="geometry"/>
                </mxCell>
                <mxCell id="3" value="&lt;font style=&quot;font-size: 18px&quot;&gt;MLD&lt;/font&gt;" style="text;html=1;align=center;verticalAlign=middle;resizable=0;points=[];autosize=1;strokeColor=none;fillColor=none;" vertex="1" parent="1">
                    <mxGeometry x="30" y="540" width="50" height="20" as="geometry"/>
                </mxCell>
                <mxCell id="4" value="Client" style="swimlane;fontStyle=1;align=center;verticalAlign=middle;childLayout=stackLayout;horizontal=1;startSize=29;horizontalStack=0;resizeParent=1;resizeParentMax=0;resizeLast=0;collapsible=0;marginBottom=0;html=1;fontSize=18;" vertex="1" parent="1">
                    <mxGeometry x="20" y="70" width="120" height="210" as="geometry"/>
                </mxCell>
                <mxCell id="5" value="id" style="text;html=1;strokeColor=none;fillColor=none;align=center;verticalAlign=middle;spacingLeft=4;spacingRight=4;overflow=hidden;rotatable=0;points=[[0,0.5],[1,0.5]];portConstraint=eastwest;fontSize=18;" vertex="1" parent="4">
                    <mxGeometry y="29" width="120" height="61" as="geometry"/>
                </mxCell>
                <mxCell id="6" value="nom" style="text;html=1;strokeColor=none;fillColor=none;align=center;verticalAlign=middle;spacingLeft=4;spacingRight=4;overflow=hidden;rotatable=0;points=[[0,0.5],[1,0.5]];portConstraint=eastwest;fontSize=18;" vertex="1" parent="4">
                    <mxGeometry y="90" width="120" height="60" as="geometry"/>
                </mxCell>
                <mxCell id="7" value="an" style="text;html=1;strokeColor=none;fillColor=none;align=center;verticalAlign=middle;spacingLeft=4;spacingRight=4;overflow=hidden;rotatable=0;points=[[0,0.5],[1,0.5]];portConstraint=eastwest;fontSize=18;" vertex="1" parent="4">
                    <mxGeometry y="150" width="120" height="60" as="geometry"/>
                </mxCell>
                <mxCell id="8" value="Commande" style="swimlane;fontStyle=1;align=center;verticalAlign=middle;childLayout=stackLayout;horizontal=1;startSize=29;horizontalStack=0;resizeParent=1;resizeParentMax=0;resizeLast=0;collapsible=0;marginBottom=0;html=1;fontSize=18;" vertex="1" parent="1">
                    <mxGeometry x="330" y="70" width="150" height="212" as="geometry"/>
                </mxCell>
                <mxCell id="9" value="&lt;b&gt;id&lt;/b&gt;" style="text;html=1;strokeColor=none;fillColor=none;align=center;verticalAlign=middle;spacingLeft=4;spacingRight=4;overflow=hidden;rotatable=0;points=[[0,0.5],[1,0.5]];portConstraint=eastwest;fontSize=18;" vertex="1" parent="8">
                    <mxGeometry y="29" width="150" height="61" as="geometry"/>
                </mxCell>
                <mxCell id="10" value="&lt;b&gt;totalPrix&lt;/b&gt;" style="text;html=1;strokeColor=none;fillColor=none;align=center;verticalAlign=middle;spacingLeft=4;spacingRight=4;overflow=hidden;rotatable=0;points=[[0,0.5],[1,0.5]];portConstraint=eastwest;fontSize=18;" vertex="1" parent="8">
                    <mxGeometry y="90" width="150" height="61" as="geometry"/>
                </mxCell>
                <mxCell id="11" value="&lt;b&gt;dateCommande&lt;/b&gt;" style="text;html=1;strokeColor=none;fillColor=none;align=center;verticalAlign=middle;spacingLeft=4;spacingRight=4;overflow=hidden;rotatable=0;points=[[0,0.5],[1,0.5]];portConstraint=eastwest;fontSize=18;" vertex="1" parent="8">
                    <mxGeometry y="151" width="150" height="61" as="geometry"/>
                </mxCell>
                <mxCell id="12" value="fait" style="shape=ellipse;container=1;horizontal=1;horizontalStack=0;resizeParent=1;resizeParentMax=0;resizeLast=0;html=1;dashed=0;collapsible=0;fontSize=18;" vertex="1" parent="1">
                    <mxGeometry x="190" y="120" width="90" height="40" as="geometry"/>
                </mxCell>
                <mxCell id="13" value="0,n" style="endArrow=none;html=1;rounded=0;align=center;verticalAlign=top;endFill=0;labelBackgroundColor=none;endSize=6;startArrow=none;startFill=0;fontSize=18;exitX=0;exitY=0.5;exitDx=0;exitDy=0;entryX=1;entryY=0.5;entryDx=0;entryDy=0;" edge="1" parent="1" source="12" target="5">
                    <mxGeometry relative="1" as="geometry">
                        <mxPoint x="760" y="139.5" as="sourcePoint"/>
                        <mxPoint x="710" y="150" as="targetPoint"/>
                    </mxGeometry>
                </mxCell>
                <mxCell id="14" value="1,1" style="endArrow=none;html=1;rounded=0;align=center;verticalAlign=top;endFill=0;labelBackgroundColor=none;endSize=6;startArrow=none;startFill=0;fontSize=18;exitX=-0.027;exitY=0.295;exitDx=0;exitDy=0;entryX=1;entryY=0.5;entryDx=0;entryDy=0;exitPerimeter=0;" edge="1" parent="1" source="9" target="12">
                    <mxGeometry relative="1" as="geometry">
                        <mxPoint x="210" y="150" as="sourcePoint"/>
                        <mxPoint x="160" y="139.5" as="targetPoint"/>
                    </mxGeometry>
                </mxCell>
                <mxCell id="15" value="Produit" style="swimlane;fontStyle=1;align=center;verticalAlign=middle;childLayout=stackLayout;horizontal=1;startSize=29;horizontalStack=0;resizeParent=1;resizeParentMax=0;resizeLast=0;collapsible=0;marginBottom=0;html=1;fontSize=18;" vertex="1" parent="1">
                    <mxGeometry x="710" y="40" width="150" height="212" as="geometry"/>
                </mxCell>
                <mxCell id="16" value="&lt;b&gt;id&lt;/b&gt;" style="text;html=1;strokeColor=none;fillColor=none;align=center;verticalAlign=middle;spacingLeft=4;spacingRight=4;overflow=hidden;rotatable=0;points=[[0,0.5],[1,0.5]];portConstraint=eastwest;fontSize=18;" vertex="1" parent="15">
                    <mxGeometry y="29" width="150" height="61" as="geometry"/>
                </mxCell>
                <mxCell id="17" value="&lt;b&gt;nom&lt;/b&gt;" style="text;html=1;strokeColor=none;fillColor=none;align=center;verticalAlign=middle;spacingLeft=4;spacingRight=4;overflow=hidden;rotatable=0;points=[[0,0.5],[1,0.5]];portConstraint=eastwest;fontSize=18;" vertex="1" parent="15">
                    <mxGeometry y="90" width="150" height="61" as="geometry"/>
                </mxCell>
                <mxCell id="18" value="&lt;b&gt;prix&lt;/b&gt;" style="text;html=1;strokeColor=none;fillColor=none;align=center;verticalAlign=middle;spacingLeft=4;spacingRight=4;overflow=hidden;rotatable=0;points=[[0,0.5],[1,0.5]];portConstraint=eastwest;fontSize=18;" vertex="1" parent="15">
                    <mxGeometry y="151" width="150" height="61" as="geometry"/>
                </mxCell>
                <mxCell id="19" value="0,n" style="endArrow=none;html=1;rounded=0;align=center;verticalAlign=top;endFill=0;labelBackgroundColor=none;endSize=6;startArrow=none;startFill=0;fontSize=18;exitX=0;exitY=0.262;exitDx=0;exitDy=0;entryX=1;entryY=0;entryDx=0;entryDy=0;exitPerimeter=0;" edge="1" parent="1" source="16" target="24">
                    <mxGeometry x="0.6197" y="19" relative="1" as="geometry">
                        <mxPoint x="634.95" y="159.995" as="sourcePoint"/>
                        <mxPoint x="620" y="149" as="targetPoint"/>
                        <mxPoint as="offset"/>
                    </mxGeometry>
                </mxCell>
                <mxCell id="20" value="1,n" style="endArrow=none;html=1;rounded=0;align=center;verticalAlign=top;endFill=0;labelBackgroundColor=none;endSize=6;startArrow=none;startFill=0;fontSize=18;exitX=0;exitY=0;exitDx=0;exitDy=0;entryX=1.02;entryY=0.377;entryDx=0;entryDy=0;entryPerimeter=0;" edge="1" parent="1" source="24" target="9">
                    <mxGeometry x="-0.0579" y="15" relative="1" as="geometry">
                        <mxPoint x="564.95" y="250.005" as="sourcePoint"/>
                        <mxPoint x="510" y="273.01" as="targetPoint"/>
                        <mxPoint as="offset"/>
                    </mxGeometry>
                </mxCell>
                <mxCell id="21" value="" style="shape=ellipse;container=1;horizontal=1;horizontalStack=0;resizeParent=1;resizeParentMax=0;resizeLast=0;html=1;dashed=0;collapsible=0;fontSize=18;" vertex="1" parent="1">
                    <mxGeometry x="550" y="80" width="110" height="100" as="geometry"/>
                </mxCell>
                <mxCell id="22" value="contient" style="html=1;strokeColor=none;fillColor=none;align=center;verticalAlign=middle;rotatable=0;fontSize=18;" vertex="1" parent="21">
                    <mxGeometry y="12.5" width="110.00000000000001" height="12.5" as="geometry"/>
                </mxCell>
                <mxCell id="23" value="" style="line;strokeWidth=1;fillColor=none;rotatable=0;labelPosition=right;points=[];portConstraint=eastwest;dashed=0;resizeWidth=1;fontSize=18;" vertex="1" parent="21">
                    <mxGeometry x="5.5" y="25" width="99.00000000000001" height="8.333333333333332" as="geometry"/>
                </mxCell>
                <mxCell id="24" value="quantite" style="text;html=1;align=center;verticalAlign=middle;rotatable=0;fontSize=18;" vertex="1" parent="21">
                    <mxGeometry y="50" width="110.00000000000001" height="25" as="geometry"/>
                </mxCell>
                <mxCell id="25" value="Client" style="swimlane;fontStyle=1;align=center;verticalAlign=middle;childLayout=stackLayout;horizontal=1;startSize=29;horizontalStack=0;resizeParent=1;resizeParentMax=0;resizeLast=0;collapsible=0;marginBottom=0;html=1;fontSize=18;" vertex="1" parent="1">
                    <mxGeometry x="20" y="580" width="200" height="90" as="geometry"/>
                </mxCell>
                <mxCell id="26" value="&lt;b&gt;PK: id&lt;/b&gt;" style="text;html=1;strokeColor=none;fillColor=none;align=center;verticalAlign=middle;spacingLeft=4;spacingRight=4;overflow=hidden;rotatable=0;points=[[0,0.5],[1,0.5]];portConstraint=eastwest;fontSize=18;" vertex="1" parent="25">
                    <mxGeometry y="29" width="200" height="61" as="geometry"/>
                </mxCell>
                <mxCell id="27" value="Commande" style="swimlane;fontStyle=1;align=center;verticalAlign=middle;childLayout=stackLayout;horizontal=1;startSize=29;horizontalStack=0;resizeParent=1;resizeParentMax=0;resizeLast=0;collapsible=0;marginBottom=0;html=1;fontSize=18;" vertex="1" parent="1">
                    <mxGeometry x="270" y="580" width="200" height="273" as="geometry"/>
                </mxCell>
                <mxCell id="28" value="&lt;b&gt;PK: id&lt;/b&gt;" style="text;html=1;strokeColor=none;fillColor=none;align=center;verticalAlign=middle;spacingLeft=4;spacingRight=4;overflow=hidden;rotatable=0;points=[[0,0.5],[1,0.5]];portConstraint=eastwest;fontSize=18;" vertex="1" parent="27">
                    <mxGeometry y="29" width="200" height="61" as="geometry"/>
                </mxCell>
                <mxCell id="29" value="&lt;u&gt;FK: idClient&lt;/u&gt;" style="text;html=1;strokeColor=none;fillColor=none;align=center;verticalAlign=middle;spacingLeft=4;spacingRight=4;overflow=hidden;rotatable=0;points=[[0,0.5],[1,0.5]];portConstraint=eastwest;fontSize=18;" vertex="1" parent="27">
                    <mxGeometry y="90" width="200" height="61" as="geometry"/>
                </mxCell>
                <mxCell id="30" value="&lt;u&gt;FK: idStatus&lt;/u&gt;" style="text;html=1;strokeColor=none;fillColor=none;align=center;verticalAlign=middle;spacingLeft=4;spacingRight=4;overflow=hidden;rotatable=0;points=[[0,0.5],[1,0.5]];portConstraint=eastwest;fontSize=18;" vertex="1" parent="27">
                    <mxGeometry y="151" width="200" height="61" as="geometry"/>
                </mxCell>
                <mxCell id="31" value="amount" style="text;html=1;strokeColor=none;fillColor=none;align=center;verticalAlign=middle;spacingLeft=4;spacingRight=4;overflow=hidden;rotatable=0;points=[[0,0.5],[1,0.5]];portConstraint=eastwest;fontSize=18;" vertex="1" parent="27">
                    <mxGeometry y="212" width="200" height="61" as="geometry"/>
                </mxCell>
                <mxCell id="32" value="CommanderProduit" style="swimlane;fontStyle=1;align=center;verticalAlign=middle;childLayout=stackLayout;horizontal=1;startSize=29;horizontalStack=0;resizeParent=1;resizeParentMax=0;resizeLast=0;collapsible=0;marginBottom=0;html=1;fontSize=18;" vertex="1" parent="1">
                    <mxGeometry x="520" y="580" width="200" height="334" as="geometry"/>
                </mxCell>
                <mxCell id="33" value="&lt;b&gt;PK: id&lt;/b&gt;" style="text;html=1;strokeColor=none;fillColor=none;align=center;verticalAlign=middle;spacingLeft=4;spacingRight=4;overflow=hidden;rotatable=0;points=[[0,0.5],[1,0.5]];portConstraint=eastwest;fontSize=18;" vertex="1" parent="32">
                    <mxGeometry y="29" width="200" height="61" as="geometry"/>
                </mxCell>
                <mxCell id="34" value="&lt;u&gt;FK: idCommande&lt;/u&gt;" style="text;html=1;strokeColor=none;fillColor=none;align=center;verticalAlign=middle;spacingLeft=4;spacingRight=4;overflow=hidden;rotatable=0;points=[[0,0.5],[1,0.5]];portConstraint=eastwest;fontSize=18;" vertex="1" parent="32">
                    <mxGeometry y="90" width="200" height="61" as="geometry"/>
                </mxCell>
                <mxCell id="35" value="&lt;u&gt;FK: idProduit&lt;/u&gt;" style="text;html=1;strokeColor=none;fillColor=none;align=center;verticalAlign=middle;spacingLeft=4;spacingRight=4;overflow=hidden;rotatable=0;points=[[0,0.5],[1,0.5]];portConstraint=eastwest;fontSize=18;" vertex="1" parent="32">
                    <mxGeometry y="151" width="200" height="61" as="geometry"/>
                </mxCell>
                <mxCell id="36" value="&lt;b&gt;quantite&lt;/b&gt;" style="text;html=1;strokeColor=none;fillColor=none;align=center;verticalAlign=middle;spacingLeft=4;spacingRight=4;overflow=hidden;rotatable=0;points=[[0,0.5],[1,0.5]];portConstraint=eastwest;fontSize=18;" vertex="1" parent="32">
                    <mxGeometry y="212" width="200" height="61" as="geometry"/>
                </mxCell>
                <mxCell id="37" value="&lt;b&gt;dateLivraison&lt;/b&gt;" style="text;html=1;strokeColor=none;fillColor=none;align=center;verticalAlign=middle;spacingLeft=4;spacingRight=4;overflow=hidden;rotatable=0;points=[[0,0.5],[1,0.5]];portConstraint=eastwest;fontSize=18;" vertex="1" parent="32">
                    <mxGeometry y="273" width="200" height="61" as="geometry"/>
                </mxCell>
                <mxCell id="38" value="Produit" style="swimlane;fontStyle=1;align=center;verticalAlign=middle;childLayout=stackLayout;horizontal=1;startSize=29;horizontalStack=0;resizeParent=1;resizeParentMax=0;resizeLast=0;collapsible=0;marginBottom=0;html=1;fontSize=18;" vertex="1" parent="1">
                    <mxGeometry x="770" y="580" width="200" height="212" as="geometry"/>
                </mxCell>
                <mxCell id="39" value="&lt;b&gt;PK: id&lt;/b&gt;" style="text;html=1;strokeColor=none;fillColor=none;align=center;verticalAlign=middle;spacingLeft=4;spacingRight=4;overflow=hidden;rotatable=0;points=[[0,0.5],[1,0.5]];portConstraint=eastwest;fontSize=18;" vertex="1" parent="38">
                    <mxGeometry y="29" width="200" height="61" as="geometry"/>
                </mxCell>
                <mxCell id="40" value="&lt;b&gt;nom&lt;/b&gt;" style="text;html=1;strokeColor=none;fillColor=none;align=center;verticalAlign=middle;spacingLeft=4;spacingRight=4;overflow=hidden;rotatable=0;points=[[0,0.5],[1,0.5]];portConstraint=eastwest;fontSize=18;" vertex="1" parent="38">
                    <mxGeometry y="90" width="200" height="61" as="geometry"/>
                </mxCell>
                <mxCell id="41" value="prix" style="text;html=1;strokeColor=none;fillColor=none;align=center;verticalAlign=middle;spacingLeft=4;spacingRight=4;overflow=hidden;rotatable=0;points=[[0,0.5],[1,0.5]];portConstraint=eastwest;fontSize=18;" vertex="1" parent="38">
                    <mxGeometry y="151" width="200" height="61" as="geometry"/>
                </mxCell>
                <mxCell id="42" value="Status" style="swimlane;fontStyle=1;align=center;verticalAlign=middle;childLayout=stackLayout;horizontal=1;startSize=29;horizontalStack=0;resizeParent=1;resizeParentMax=0;resizeLast=0;collapsible=0;marginBottom=0;html=1;fontSize=18;" vertex="1" parent="1">
                    <mxGeometry x="1020" y="580" width="200" height="151" as="geometry"/>
                </mxCell>
                <mxCell id="43" value="&lt;b&gt;PK: id&lt;/b&gt;" style="text;html=1;strokeColor=none;fillColor=none;align=center;verticalAlign=middle;spacingLeft=4;spacingRight=4;overflow=hidden;rotatable=0;points=[[0,0.5],[1,0.5]];portConstraint=eastwest;fontSize=18;" vertex="1" parent="42">
                    <mxGeometry y="29" width="200" height="61" as="geometry"/>
                </mxCell>
                <mxCell id="44" value="&lt;b&gt;option&lt;/b&gt;" style="text;html=1;strokeColor=none;fillColor=none;align=center;verticalAlign=middle;spacingLeft=4;spacingRight=4;overflow=hidden;rotatable=0;points=[[0,0.5],[1,0.5]];portConstraint=eastwest;fontSize=18;" vertex="1" parent="42">
                    <mxGeometry y="90" width="200" height="61" as="geometry"/>
                </mxCell>
                <mxCell id="45" value="Status" style="swimlane;fontStyle=1;align=center;verticalAlign=middle;childLayout=stackLayout;horizontal=1;startSize=29;horizontalStack=0;resizeParent=1;resizeParentMax=0;resizeLast=0;collapsible=0;marginBottom=0;html=1;fontSize=18;" vertex="1" parent="1">
                    <mxGeometry x="910" y="230" width="200" height="151" as="geometry"/>
                </mxCell>
                <mxCell id="46" value="&lt;b&gt;id&lt;/b&gt;" style="text;html=1;strokeColor=none;fillColor=none;align=center;verticalAlign=middle;spacingLeft=4;spacingRight=4;overflow=hidden;rotatable=0;points=[[0,0.5],[1,0.5]];portConstraint=eastwest;fontSize=18;" vertex="1" parent="45">
                    <mxGeometry y="29" width="200" height="61" as="geometry"/>
                </mxCell>
                <mxCell id="47" value="&lt;b&gt;option&lt;/b&gt;" style="text;html=1;strokeColor=none;fillColor=none;align=center;verticalAlign=middle;spacingLeft=4;spacingRight=4;overflow=hidden;rotatable=0;points=[[0,0.5],[1,0.5]];portConstraint=eastwest;fontSize=18;" vertex="1" parent="45">
                    <mxGeometry y="90" width="200" height="61" as="geometry"/>
                </mxCell>
                <mxCell id="48" value="" style="shape=ellipse;container=1;horizontal=1;horizontalStack=0;resizeParent=1;resizeParentMax=0;resizeLast=0;html=1;dashed=0;collapsible=0;fontSize=18;" vertex="1" parent="1">
                    <mxGeometry x="570" y="360" width="80" height="40" as="geometry"/>
                </mxCell>
                <mxCell id="49" value="a" style="text;html=1;align=center;verticalAlign=middle;rotatable=0;fontSize=18;" vertex="1" parent="48">
                    <mxGeometry y="20" width="80.00000000000001" height="10" as="geometry"/>
                </mxCell>
                <mxCell id="50" value="" style="endArrow=none;html=1;rounded=0;align=center;verticalAlign=top;endFill=0;labelBackgroundColor=none;endSize=6;startArrow=none;startFill=0;fontSize=18;exitX=0.026;exitY=0.731;exitDx=0;exitDy=0;entryX=0.999;entryY=0.711;entryDx=0;entryDy=0;entryPerimeter=0;exitPerimeter=0;" edge="1" parent="1" source="48" target="9">
                    <mxGeometry x="-0.0579" y="15" relative="1" as="geometry">
                        <mxPoint x="530" y="150" as="sourcePoint"/>
                        <mxPoint x="493" y="131.99700000000007" as="targetPoint"/>
                        <mxPoint as="offset"/>
                    </mxGeometry>
                </mxCell>
                <mxCell id="51" value="1,1" style="edgeLabel;html=1;align=center;verticalAlign=middle;resizable=0;points=[];fontSize=18;" vertex="1" connectable="0" parent="50">
                    <mxGeometry x="-0.195" relative="1" as="geometry">
                        <mxPoint as="offset"/>
                    </mxGeometry>
                </mxCell>
                <mxCell id="52" value="0,n" style="endArrow=none;html=1;rounded=0;align=center;verticalAlign=top;endFill=0;labelBackgroundColor=none;endSize=6;startArrow=none;startFill=0;fontSize=18;exitX=0;exitY=0.82;exitDx=0;exitDy=0;entryX=1;entryY=0.5;entryDx=0;entryDy=0;exitPerimeter=0;" edge="1" parent="1" source="47" target="48">
                    <mxGeometry x="-0.1216" y="5" relative="1" as="geometry">
                        <mxPoint x="540" y="160" as="sourcePoint"/>
                        <mxPoint x="503" y="141.99700000000007" as="targetPoint"/>
                        <mxPoint y="1" as="offset"/>
                    </mxGeometry>
                </mxCell>
                <mxCell id="53" value="ModePaiment" style="swimlane;fontStyle=1;align=center;verticalAlign=middle;childLayout=stackLayout;horizontal=1;startSize=29;horizontalStack=0;resizeParent=1;resizeParentMax=0;resizeLast=0;collapsible=0;marginBottom=0;html=1;fontSize=18;" vertex="1" parent="1">
                    <mxGeometry x="210" y="360" width="200" height="151" as="geometry"/>
                </mxCell>
                <mxCell id="54" value="&lt;b&gt;id&lt;/b&gt;" style="text;html=1;strokeColor=none;fillColor=none;align=center;verticalAlign=middle;spacingLeft=4;spacingRight=4;overflow=hidden;rotatable=0;points=[[0,0.5],[1,0.5]];portConstraint=eastwest;fontSize=18;" vertex="1" parent="53">
                    <mxGeometry y="29" width="200" height="61" as="geometry"/>
                </mxCell>
                <mxCell id="55" value="&lt;b&gt;option&lt;/b&gt;" style="text;html=1;strokeColor=none;fillColor=none;align=center;verticalAlign=middle;spacingLeft=4;spacingRight=4;overflow=hidden;rotatable=0;points=[[0,0.5],[1,0.5]];portConstraint=eastwest;fontSize=18;" vertex="1" parent="53">
                    <mxGeometry y="90" width="200" height="61" as="geometry"/>
                </mxCell>
                <mxCell id="56" value="" style="shape=ellipse;container=1;horizontal=1;horizontalStack=0;resizeParent=1;resizeParentMax=0;resizeLast=0;html=1;dashed=0;collapsible=0;fontSize=18;" vertex="1" parent="1">
                    <mxGeometry x="190" y="234.5" width="70" height="45.5" as="geometry"/>
                </mxCell>
                <mxCell id="57" value="a" style="text;html=1;align=center;verticalAlign=middle;rotatable=0;fontSize=18;" vertex="1" parent="56">
                    <mxGeometry y="22.75" width="70.00000000000001" height="11.375" as="geometry"/>
                </mxCell>
                <mxCell id="58" value="" style="endArrow=none;html=1;rounded=0;align=center;verticalAlign=top;endFill=0;labelBackgroundColor=none;endSize=6;startArrow=none;startFill=0;fontSize=18;exitX=-0.015;exitY=0.721;exitDx=0;exitDy=0;exitPerimeter=0;entryX=0;entryY=0.25;entryDx=0;entryDy=0;" edge="1" parent="1" source="54" target="57">
                    <mxGeometry x="-0.0579" y="15" relative="1" as="geometry">
                        <mxPoint x="537.0099999999999" y="545.4899999999999" as="sourcePoint"/>
                        <mxPoint x="200" y="258" as="targetPoint"/>
                        <mxPoint as="offset"/>
                        <Array as="points">
                            <mxPoint x="150" y="340"/>
                        </Array>
                    </mxGeometry>
                </mxCell>
                <mxCell id="59" value="0,n" style="edgeLabel;html=1;align=center;verticalAlign=middle;resizable=0;points=[];fontSize=18;" vertex="1" connectable="0" parent="58">
                    <mxGeometry x="-0.227" relative="1" as="geometry">
                        <mxPoint x="-1" as="offset"/>
                    </mxGeometry>
                </mxCell>
                <mxCell id="60" value="1" style="endArrow=none;html=1;rounded=0;align=center;verticalAlign=top;endFill=0;labelBackgroundColor=none;endSize=6;startArrow=none;startFill=0;fontSize=18;exitX=0.957;exitY=0.264;exitDx=0;exitDy=0;exitPerimeter=0;entryX=0;entryY=0.5;entryDx=0;entryDy=0;" edge="1" parent="1" source="56" target="10">
                    <mxGeometry x="-0.0579" y="15" relative="1" as="geometry">
                        <mxPoint x="242" y="417.481" as="sourcePoint"/>
                        <mxPoint x="275" y="275.5" as="targetPoint"/>
                        <mxPoint as="offset"/>
                        <Array as="points">
                            <mxPoint x="290" y="220"/>
                        </Array>
                    </mxGeometry>
                </mxCell>
                <mxCell id="61" value="1,1" style="edgeLabel;html=1;align=center;verticalAlign=middle;resizable=0;points=[];fontSize=18;" vertex="1" connectable="0" parent="60">
                    <mxGeometry x="-0.195" relative="1" as="geometry">
                        <mxPoint as="offset"/>
                    </mxGeometry>
                </mxCell>
                <mxCell id="62" value="" style="shape=ellipse;container=1;horizontal=1;horizontalStack=0;resizeParent=1;resizeParentMax=0;resizeLast=0;html=1;dashed=0;collapsible=0;fontSize=18;" vertex="1" parent="1">
                    <mxGeometry x="-100" y="330" width="60" height="35.5" as="geometry"/>
                </mxCell>
                <mxCell id="63" value="a" style="text;html=1;align=center;verticalAlign=middle;rotatable=0;fontSize=18;" vertex="1" parent="62">
                    <mxGeometry y="17.75" width="60.00000000000001" height="8.875" as="geometry"/>
                </mxCell>
                <mxCell id="64" value="" style="endArrow=none;html=1;rounded=0;align=center;verticalAlign=top;endFill=0;labelBackgroundColor=none;endSize=6;startArrow=none;startFill=0;fontSize=18;exitX=0.5;exitY=0;exitDx=0;exitDy=0;entryX=-0.008;entryY=0.15;entryDx=0;entryDy=0;entryPerimeter=0;" edge="1" parent="1" source="62" target="6">
                    <mxGeometry x="-0.0579" y="15" relative="1" as="geometry">
                        <mxPoint x="13.010000000000105" y="368.2399999999999" as="sourcePoint"/>
                        <mxPoint x="-110.00000000000011" y="122.75099999999998" as="targetPoint"/>
                        <mxPoint as="offset"/>
                    </mxGeometry>
                </mxCell>
                <mxCell id="65" value="0,n" style="edgeLabel;html=1;align=center;verticalAlign=middle;resizable=0;points=[];fontSize=18;" vertex="1" connectable="0" parent="64">
                    <mxGeometry x="-0.195" relative="1" as="geometry">
                        <mxPoint as="offset"/>
                    </mxGeometry>
                </mxCell>
                <mxCell id="66" value="" style="endArrow=none;html=1;rounded=0;align=center;verticalAlign=top;endFill=0;labelBackgroundColor=none;endSize=6;startArrow=none;startFill=0;fontSize=18;exitX=0;exitY=0.148;exitDx=0;exitDy=0;exitPerimeter=0;entryX=1;entryY=1;entryDx=0;entryDy=0;" edge="1" parent="1" source="55" target="63">
                    <mxGeometry x="-0.0579" y="15" relative="1" as="geometry">
                        <mxPoint x="-70" y="541" as="sourcePoint"/>
                        <mxPoint x="-11" y="360" as="targetPoint"/>
                        <mxPoint as="offset"/>
                    </mxGeometry>
                </mxCell>
                <mxCell id="67" value="1,1" style="edgeLabel;html=1;align=center;verticalAlign=middle;resizable=0;points=[];fontSize=18;" vertex="1" connectable="0" parent="66">
                    <mxGeometry x="-0.195" relative="1" as="geometry">
                        <mxPoint as="offset"/>
                    </mxGeometry>
                </mxCell>
                <mxCell id="68" value="ModePaiment" style="swimlane;fontStyle=1;align=center;verticalAlign=middle;childLayout=stackLayout;horizontal=1;startSize=29;horizontalStack=0;resizeParent=1;resizeParentMax=0;resizeLast=0;collapsible=0;marginBottom=0;html=1;fontSize=18;" vertex="1" parent="1">
                    <mxGeometry x="1270" y="580" width="200" height="151" as="geometry"/>
                </mxCell>
                <mxCell id="69" value="&lt;b&gt;PK: id&lt;/b&gt;" style="text;html=1;strokeColor=none;fillColor=none;align=center;verticalAlign=middle;spacingLeft=4;spacingRight=4;overflow=hidden;rotatable=0;points=[[0,0.5],[1,0.5]];portConstraint=eastwest;fontSize=18;" vertex="1" parent="68">
                    <mxGeometry y="29" width="200" height="61" as="geometry"/>
                </mxCell>
                <mxCell id="70" value="&lt;b&gt;option&lt;/b&gt;" style="text;html=1;strokeColor=none;fillColor=none;align=center;verticalAlign=middle;spacingLeft=4;spacingRight=4;overflow=hidden;rotatable=0;points=[[0,0.5],[1,0.5]];portConstraint=eastwest;fontSize=18;" vertex="1" parent="68">
                    <mxGeometry y="90" width="200" height="61" as="geometry"/>
                </mxCell>
            </root>
        </mxGraphModel>
    </diagram>
</mxfile>